<svg width="2353" height="1127" xmlns="http://www.w3.org/2000/svg" xmlns:xlink="http://www.w3.org/1999/xlink" overflow="hidden"><defs><clipPath id="clip0"><rect x="1514" y="251" width="2353" height="1127"/></clipPath><clipPath id="clip1"><rect x="1513" y="1068" width="178" height="178"/></clipPath><clipPath id="clip2"><rect x="1513" y="1068" width="178" height="178"/></clipPath><clipPath id="clip3"><rect x="1513" y="1068" width="178" height="178"/></clipPath><clipPath id="clip4"><rect x="3030" y="820" width="155" height="154"/></clipPath><clipPath id="clip5"><rect x="3030" y="820" width="155" height="154"/></clipPath><clipPath id="clip6"><rect x="3030" y="820" width="155" height="154"/></clipPath><clipPath id="clip7"><rect x="3488" y="821" width="155" height="155"/></clipPath><clipPath id="clip8"><rect x="3488" y="821" width="155" height="155"/></clipPath><clipPath id="clip9"><rect x="3488" y="821" width="155" height="155"/></clipPath><clipPath id="clip10"><rect x="1567" y="588" width="222" height="221"/></clipPath><clipPath id="clip11"><rect x="1567" y="588" width="222" height="221"/></clipPath><clipPath id="clip12"><rect x="1567" y="588" width="222" height="221"/></clipPath><clipPath id="clip13"><rect x="1842" y="375" width="149" height="149"/></clipPath><clipPath id="clip14"><rect x="1842" y="375" width="149" height="149"/></clipPath><clipPath id="clip15"><rect x="1842" y="375" width="149" height="149"/></clipPath><clipPath id="clip16"><rect x="2115" y="639" width="150" height="151"/></clipPath><clipPath id="clip17"><rect x="2115" y="639" width="150" height="151"/></clipPath><clipPath id="clip18"><rect x="2115" y="639" width="150" height="151"/></clipPath><clipPath id="clip19"><rect x="2070" y="841" width="239" height="240"/></clipPath><clipPath id="clip20"><rect x="2070" y="841" width="239" height="240"/></clipPath><clipPath id="clip21"><rect x="2070" y="841" width="239" height="240"/></clipPath><clipPath id="clip22"><rect x="1782" y="1021" width="271" height="271"/></clipPath><clipPath id="clip23"><rect x="1782" y="1021" width="271" height="271"/></clipPath><clipPath id="clip24"><rect x="1782" y="1021" width="271" height="271"/></clipPath><clipPath id="clip25"><rect x="2104" y="370" width="171" height="156"/></clipPath><clipPath id="clip26"><rect x="2104" y="370" width="171" height="156"/></clipPath><clipPath id="clip27"><rect x="2104" y="370" width="171" height="156"/></clipPath><clipPath id="clip28"><rect x="3218" y="850" width="236" height="112"/></clipPath><clipPath id="clip29"><rect x="3218" y="850" width="236" height="112"/></clipPath><clipPath id="clip30"><rect x="3218" y="850" width="236" height="112"/></clipPath></defs><g clip-path="url(#clip0)" transform="translate(-1514 -251)"><rect x="2454.5" y="389.5" width="663" height="121" stroke="#787878" stroke-width="4.58333" stroke-miterlimit="8" fill="#A5A5A5"/><path d="M2549.5 356.834C2549.5 331.244 2570.24 310.5 2595.83 310.5L2977.17 310.5C3002.76 310.5 3023.5 331.244 3023.5 356.834L3023.5 542.166C3023.5 567.755 3002.76 588.5 2977.17 588.5L2595.83 588.5C2570.24 588.5 2549.5 567.755 2549.5 542.166Z" stroke="#787878" stroke-width="4.58333" stroke-miterlimit="8" fill="#A5A5A5" fill-rule="evenodd"/><rect x="2427.5" y="355.5" width="26.9998" height="189" stroke="#787878" stroke-width="4.58333" stroke-miterlimit="8" fill="#A5A5A5"/><rect x="3117.5" y="355.5" width="27.0002" height="189" stroke="#787878" stroke-width="4.58333" stroke-miterlimit="8" fill="#A5A5A5"/><path d="M2839.5 286.333C2839.5 283.664 2841.66 281.5 2844.33 281.5L2903.67 281.5C2906.34 281.5 2908.5 283.664 2908.5 286.333L2908.5 305.666C2908.5 308.336 2906.34 310.5 2903.67 310.5L2844.33 310.5C2841.66 310.5 2839.5 308.336 2839.5 305.666Z" stroke="#787878" stroke-width="4.58333" stroke-miterlimit="8" fill="#A5A5A5" fill-rule="evenodd"/><path d="M2839.5 593.5C2839.5 590.739 2841.74 588.5 2844.5 588.5L2903.5 588.5C2906.26 588.5 2908.5 590.739 2908.5 593.5L2908.5 613.5C2908.5 616.261 2906.26 618.5 2903.5 618.5L2844.5 618.5C2841.74 618.5 2839.5 616.261 2839.5 613.5Z" stroke="#787878" stroke-width="4.58333" stroke-miterlimit="8" fill="#A5A5A5" fill-rule="evenodd"/><rect x="2875" y="268" width="204" height="15.9998" fill="#7F7F7F"/><rect x="2875" y="616" width="204" height="16.9998" fill="#7F7F7F"/><rect x="3079" y="268" width="17.0002" height="454" fill="#7F7F7F"/><rect x="2962" y="706" width="159" height="15.9998" fill="#7F7F7F"/><path d="M3121 688.5C3121 681.597 3126.6 676 3133.5 676L3259.5 676C3266.4 676 3272 681.597 3272 688.5L3272 738.5C3272 745.404 3266.4 751 3259.5 751L3133.5 751C3126.6 751 3121 745.404 3121 738.5Z" fill="#7F7F7F" fill-rule="evenodd"/><path d="M3027 443.833C3027 442.269 3028.27 441 3029.83 441L3078.17 441C3079.73 441 3081 442.269 3081 443.833L3081 455.167C3081 456.731 3079.73 458 3078.17 458L3029.83 458C3028.27 458 3027 456.731 3027 455.167Z" fill="#7F7F7F" fill-rule="evenodd"/><path d="M3141 417.667C3141 415.089 3143.09 413 3145.67 413L3291.33 413C3293.91 413 3296 415.089 3296 417.667L3296 436.333C3296 438.911 3293.91 441 3291.33 441L3145.67 441C3143.09 441 3141 438.911 3141 436.333Z" fill="#404040" fill-rule="evenodd"/><path d="M3272 714 3335.83 714 3335.83 849.579" stroke="#000000" stroke-width="2.29167" stroke-miterlimit="8" fill="none" fill-rule="evenodd"/><path d="M3296 427 3564.43 427 3564.43 822.185" stroke="#000000" stroke-width="2.29167" stroke-miterlimit="8" fill="none" fill-rule="evenodd"/><path d="M3081 449 3107.93 449 3107.93 820.464" stroke="#000000" stroke-width="2.29167" stroke-miterlimit="8" fill="none" fill-rule="evenodd"/><path d="M2275.5 448.5 2351.47 448.5 2351.47 449.483 2427.45 449.483" stroke="#000000" stroke-width="4.58333" stroke-miterlimit="8" fill="none" fill-rule="evenodd"/><path d="M0 0 112.489 0.981988" stroke="#000000" stroke-width="4.58333" stroke-miterlimit="8" fill="none" fill-rule="evenodd" transform="matrix(1 0 0 -1 1991.5 449.482)"/><path d="M0 0 0.0974409 114.464" stroke="#000000" stroke-width="4.58333" stroke-miterlimit="8" fill="none" fill-rule="evenodd" transform="matrix(-1 0 0 1 2189.6 526.5)"/><path d="M1678.5 587.952 1678.5 449.5 1842.14 449.5" stroke="#000000" stroke-width="4.58333" stroke-miterlimit="8" fill="none" fill-rule="evenodd"/><path d="M0 0 106.488 0 106.488 238.862 212.976 238.862" stroke="#000000" stroke-width="2.29167" stroke-miterlimit="8" fill="none" fill-rule="evenodd" transform="matrix(1.83697e-16 1 1 -1.83697e-16 1678 809)"/><path d="M0 0 248.825 0 248.825 0.538091 497.65 0.538091" stroke="#000000" stroke-width="2.29167" stroke-miterlimit="8" fill="none" fill-rule="evenodd" transform="matrix(1.83697e-16 1 1 -1.83697e-16 1917 524)"/><path d="M0 0 197.475 0 197.475 306.683" stroke="#000000" stroke-width="2.29167" stroke-miterlimit="8" fill="none" fill-rule="evenodd" transform="matrix(-1 1.22465e-16 1.22465e-16 1 2114.47 715)"/><path d="M3107.28 974 3107.28 1156.49 2052 1156.49" stroke="#000000" stroke-width="2.29167" stroke-miterlimit="8" fill="none" fill-rule="evenodd"/><path d="M3335.85 961 3335.85 1157.1 2052 1157.1" stroke="#000000" stroke-width="2.29167" stroke-miterlimit="8" fill="none" fill-rule="evenodd"/><path d="M3564.38 976 3564.38 1157.06 2052 1157.06" stroke="#000000" stroke-width="2.29167" stroke-miterlimit="8" fill="none" fill-rule="evenodd"/><g clip-path="url(#clip1)"><g clip-path="url(#clip2)"><g clip-path="url(#clip3)"><path d="M1663.34 1079.06 1552.72 1079.06C1537.23 1079.06 1525.06 1091.23 1525.06 1106.72L1525.06 1173.09C1525.06 1188.58 1537.23 1200.75 1552.72 1200.75L1602.5 1200.75 1602.5 1222.88 1563.78 1222.88C1560.46 1222.88 1558.25 1225.09 1558.25 1228.41 1558.25 1231.73 1560.46 1233.94 1563.78 1233.94L1652.28 1233.94C1655.6 1233.94 1657.81 1231.73 1657.81 1228.41 1657.81 1225.09 1655.6 1222.88 1652.28 1222.88L1613.56 1222.88 1613.56 1200.75 1663.34 1200.75C1678.83 1200.75 1691 1188.58 1691 1173.09L1691 1106.72C1691 1091.23 1678.83 1079.06 1663.34 1079.06ZM1679.94 1173.09C1679.94 1181.94 1672.19 1189.69 1663.34 1189.69L1552.72 1189.69C1543.87 1189.69 1536.12 1181.94 1536.12 1173.09L1536.12 1106.72C1536.12 1097.87 1543.87 1090.12 1552.72 1090.12L1663.34 1090.12C1672.19 1090.12 1679.94 1097.87 1679.94 1106.72L1679.94 1173.09Z"/></g></g></g><path d="M0 0 45.5951 0 45.5951 0.000360892 91.1903 0.000360892" stroke="#000000" stroke-width="2.29167" stroke-miterlimit="8" fill="none" fill-rule="evenodd" transform="matrix(1 0 0 -1 1691 1157)"/><g clip-path="url(#clip4)"><g clip-path="url(#clip5)"><g clip-path="url(#clip6)"><path d="M3180.81 912.162 3162.96 840.125C3161.69 834.387 3156.59 830.562 3150.85 830.562L3064.79 830.562C3059.05 830.562 3053.95 834.387 3052.04 840.125L3034.19 912.162 3034.19 951.687C3034.19 958.7 3039.92 964.437 3046.94 964.437L3168.06 964.437C3175.08 964.437 3180.81 958.7 3180.81 951.687L3180.81 913.437 3180.81 912.162ZM3064.79 843.312 3150.21 843.312 3166.15 907.062 3048.85 907.062 3064.79 843.312ZM3168.06 951.687 3046.94 951.687 3046.94 919.812 3168.06 919.812 3168.06 951.687Z"/><path d="M3148.94 945.312C3152.76 945.312 3155.31 942.762 3155.31 938.937L3155.31 932.562C3155.31 928.737 3152.76 926.187 3148.94 926.187 3145.11 926.187 3142.56 928.737 3142.56 932.562L3142.56 938.937C3142.56 942.762 3145.11 945.312 3148.94 945.312Z"/></g></g></g><g clip-path="url(#clip7)"><g clip-path="url(#clip8)"><g clip-path="url(#clip9)"><path d="M3638.79 913.758 3620.82 841.25C3619.54 835.475 3614.41 831.625 3608.63 831.625L3522.01 831.625C3516.23 831.625 3511.1 835.475 3509.18 841.25L3491.21 913.758 3491.21 953.542C3491.21 960.6 3496.98 966.375 3504.04 966.375L3625.96 966.375C3633.02 966.375 3638.79 960.6 3638.79 953.542L3638.79 915.042 3638.79 913.758ZM3522.01 844.458 3607.99 844.458 3624.03 908.625 3505.97 908.625 3522.01 844.458ZM3625.96 953.542 3504.04 953.542 3504.04 921.458 3625.96 921.458 3625.96 953.542Z"/><path d="M3606.71 947.125C3610.56 947.125 3613.12 944.558 3613.12 940.708L3613.12 934.292C3613.12 930.442 3610.56 927.875 3606.71 927.875 3602.86 927.875 3600.29 930.442 3600.29 934.292L3600.29 940.708C3600.29 944.558 3602.86 947.125 3606.71 947.125Z"/></g></g></g><g clip-path="url(#clip10)"><g clip-path="url(#clip11)"><g clip-path="url(#clip12)"><path d="M1678.78 795.9 1581.1 698.219 1678.22 601.1 1775.92 698.802 1774.69 700.032 1678.78 795.9ZM1585.98 698.219 1678.78 791.022 1771 698.802 1678.2 606 1585.98 698.219Z" fill="#515151"/><path d="M1684.54 703.313 1668.14 703.313 1664.6 717.363C1664.1 719.607 1664.1 721.398 1664.6 722.758 1665.1 724.118 1666.2 724.808 1667.92 724.808L1669.05 724.808 1669.05 727.031 1655.49 727.031 1655.49 724.83 1656.62 724.83C1657.61 724.83 1658.47 724.528 1659.21 723.902 1659.94 723.276 1660.44 722.219 1660.69 720.729L1675.05 663.667 1680.7 661.789 1694.79 720.751C1695.29 722.24 1695.92 723.298 1696.65 723.902 1697.38 724.528 1698.25 724.83 1699.24 724.83L1700.36 724.83 1700.36 727.053 1684.35 727.053 1684.35 724.83 1685.84 724.83C1687.33 724.83 1688.26 724.398 1688.62 723.535 1688.99 722.672 1688.92 721.377 1688.43 719.65L1684.54 703.313ZM1676.97 669.99 1676.56 669.947 1668.7 701.09 1684.39 701.09 1676.97 669.99Z" fill="#515151"/></g></g></g><g clip-path="url(#clip13)"><g clip-path="url(#clip14)"><g clip-path="url(#clip15)"><path d="M1900.89 492.511 1900.89 449.016C1900.9 447.889 1901.81 446.977 1902.93 446.973L1931.46 446.973C1932.59 446.977 1933.5 447.893 1933.5 449.022L1933.5 492.511C1933.5 493.64 1932.58 494.554 1931.46 494.554L1902.94 494.554C1901.81 494.554 1900.89 493.637 1900.89 492.505Z" fill="#707070"/><path d="M1931.46 495.913 1902.93 495.913C1901.06 495.91 1899.53 494.39 1899.53 492.511L1899.53 449.016C1899.53 447.137 1901.06 445.617 1902.93 445.614L1931.46 445.614C1933.34 445.62 1934.86 447.14 1934.86 449.016L1934.86 492.511C1934.86 494.387 1933.34 495.907 1931.46 495.913ZM1902.93 448.339C1902.56 448.339 1902.25 448.645 1902.25 449.022L1902.25 492.511C1902.25 492.884 1902.56 493.194 1902.93 493.194L1931.46 493.194C1931.83 493.194 1932.15 492.884 1932.15 492.511L1932.15 449.016C1932.15 448.639 1931.84 448.333 1931.46 448.333L1902.93 448.333Z" fill="#707070"/><path d="M1972.52 453.473 1861.87 453.473C1860.74 453.473 1859.82 452.56 1859.82 451.431L1859.82 422.903C1859.82 421.772 1860.74 420.855 1861.87 420.855L1972.52 420.855C1973.66 420.855 1974.57 421.772 1974.57 422.903L1974.57 451.431C1974.57 452.56 1973.65 453.473 1972.52 453.473Z" fill="#707070"/><path d="M1952.96 433.253 1926.23 433.253C1925.94 432.565 1925.56 431.913 1925.12 431.31L1938.48 408.177C1939.12 407.044 1938.73 405.608 1937.61 404.949L1934.9 403.378C1933.77 402.734 1932.33 403.122 1931.67 404.247L1918.31 427.38C1917.93 427.34 1917.56 427.317 1917.18 427.311 1916.81 427.311 1916.44 427.33 1916.06 427.373L1902.71 404.229C1902.05 403.107 1900.62 402.72 1899.48 403.36L1896.77 404.924C1895.64 405.583 1895.26 407.024 1895.9 408.159L1909.27 431.316C1908.82 431.906 1908.45 432.557 1908.14 433.253L1881.42 433.253C1880.12 433.26 1879.06 434.312 1879.06 435.612L1879.06 438.747C1879.06 440.045 1880.11 441.112 1881.42 441.112L1908.14 441.112C1908.45 441.814 1908.83 442.46 1909.26 443.056L1895.9 466.188C1895.26 467.323 1895.65 468.761 1896.77 469.422L1899.48 470.987C1900.61 471.631 1902.05 471.244 1902.71 470.118L1916.07 446.973C1916.44 447.004 1916.82 447.035 1917.2 447.035 1917.57 447.035 1917.95 447.023 1918.32 446.973L1931.67 470.105C1932.31 471.223 1933.78 471.62 1934.9 470.975L1937.61 469.404C1938.73 468.745 1939.12 467.309 1938.48 466.176L1925.11 443.037C1925.56 442.441 1925.93 441.795 1926.23 441.1L1952.96 441.1C1954.25 441.1 1955.33 440.045 1955.33 438.735L1955.33 435.593C1955.31 434.297 1954.26 433.253 1952.96 433.247Z" fill="#707070"/><path d="M1900.65 472.657C1900 472.659 1899.36 472.487 1898.8 472.16L1896.09 470.596C1894.32 469.588 1893.69 467.329 1894.7 465.552 1894.71 465.536 1894.72 465.521 1894.73 465.505L1907.67 443.112C1907.53 442.907 1907.41 442.677 1907.29 442.46L1881.42 442.46C1879.36 442.46 1877.69 440.792 1877.69 438.735L1877.69 435.593C1877.69 433.536 1879.36 431.868 1881.42 431.868L1907.29 431.868C1907.41 431.645 1907.53 431.44 1907.67 431.223L1894.73 408.829C1893.71 407.045 1894.32 404.773 1896.09 403.738L1898.8 402.174C1900.58 401.154 1902.85 401.761 1903.89 403.534L1916.82 425.933C1917.07 425.916 1917.31 425.916 1917.56 425.933L1930.49 403.534C1931.53 401.755 1933.8 401.145 1935.58 402.168L1938.29 403.738C1940.06 404.771 1940.67 407.045 1939.65 408.829L1926.71 431.229C1926.85 431.434 1926.97 431.651 1927.09 431.875L1952.96 431.875C1955.02 431.875 1956.69 433.542 1956.69 435.599L1956.69 438.735C1956.69 440.792 1955.02 442.46 1952.96 442.46L1927.09 442.46C1926.97 442.683 1926.85 442.888 1926.71 443.105L1939.65 465.511C1940.68 467.283 1940.08 469.556 1938.31 470.588 1938.3 470.592 1938.29 470.597 1938.29 470.602L1935.58 472.167C1933.8 473.185 1931.53 472.576 1930.49 470.801L1917.56 448.401C1917.31 448.418 1917.07 448.418 1916.82 448.401L1903.88 470.801C1903.22 471.95 1901.99 472.659 1900.66 472.663ZM1881.44 434.612C1880.88 434.612 1880.43 435.063 1880.43 435.618L1880.43 438.753C1880.43 439.293 1880.87 439.753 1881.44 439.753L1908.16 439.753C1908.7 439.753 1909.2 440.082 1909.4 440.572 1909.65 441.168 1909.98 441.727 1910.37 442.242 1910.69 442.678 1910.73 443.262 1910.46 443.732L1897.09 466.871C1896.96 467.102 1896.92 467.377 1896.99 467.634 1897.06 467.895 1897.22 468.119 1897.45 468.255L1900.16 469.814C1900.64 470.087 1901.25 469.938 1901.53 469.441L1914.89 446.29C1915.15 445.822 1915.67 445.56 1916.21 445.626 1916.87 445.694 1917.49 445.694 1918.15 445.626 1918.69 445.561 1919.21 445.823 1919.48 446.29L1932.86 469.422C1933.13 469.902 1933.74 470.07 1934.22 469.796 1934.22 469.796 1934.22 469.795 1934.22 469.795L1936.93 468.23C1937.4 467.948 1937.56 467.333 1937.29 466.852L1923.94 443.72C1923.67 443.248 1923.7 442.661 1924.02 442.224 1924.42 441.715 1924.74 441.15 1924.99 440.554 1925.21 440.064 1925.7 439.747 1926.23 439.74L1952.96 439.74C1953.52 439.74 1953.97 439.29 1953.97 438.735L1953.97 435.593C1953.96 435.04 1953.51 434.594 1952.96 434.594L1926.23 434.594C1925.69 434.596 1925.2 434.273 1924.99 433.774 1924.74 433.179 1924.42 432.618 1924.02 432.104 1923.7 431.667 1923.67 431.08 1923.94 430.608L1937.3 407.476C1937.58 407.006 1937.42 406.401 1936.95 406.124 1936.94 406.119 1936.93 406.114 1936.93 406.11L1934.22 404.545C1933.75 404.268 1933.14 404.424 1932.87 404.894 1932.86 404.902 1932.86 404.91 1932.85 404.918L1919.5 428.056C1919.23 428.527 1918.71 428.789 1918.17 428.721 1917.52 428.652 1916.87 428.652 1916.23 428.721 1915.69 428.785 1915.17 428.524 1914.9 428.056L1901.54 404.906C1901.26 404.426 1900.65 404.258 1900.17 404.532 1900.17 404.532 1900.17 404.533 1900.17 404.533L1897.47 406.104C1896.99 406.377 1896.82 406.987 1897.1 407.467 1897.1 407.468 1897.1 407.469 1897.1 407.47L1910.46 430.596C1910.73 431.069 1910.7 431.66 1910.37 432.098 1909.98 432.61 1909.66 433.169 1909.4 433.762 1909.19 434.254 1908.7 434.574 1908.16 434.581L1881.44 434.581 1881.44 434.612Z" fill="#707070"/><path d="M1935.96 397.834C1926.69 399.672 1907.7 399.672 1898.42 397.834 1895.87 397.323 1893.33 398.788 1892.5 401.255 1889.46 410.195 1879.96 426.653 1873.74 433.749 1872.02 435.707 1872.02 438.639 1873.74 440.597 1879.97 447.712 1889.47 464.152 1892.5 473.092 1893.33 475.557 1895.87 477.018 1898.42 476.506 1907.68 474.675 1926.68 474.675 1935.96 476.506 1938.51 477.018 1941.04 475.557 1941.88 473.092 1944.92 464.152 1954.42 447.693 1960.64 440.597 1962.36 438.639 1962.36 435.707 1960.64 433.749 1954.41 426.635 1944.91 410.195 1941.88 401.255 1941.03 398.799 1938.51 397.343 1935.96 397.84ZM1929.9 465.753C1923.19 464.648 1911.19 464.648 1904.48 465.753 1902.05 466.148 1899.67 464.772 1898.8 462.463 1896.4 456.099 1890.41 445.719 1886.1 440.461 1884.53 438.557 1884.53 435.808 1886.1 433.905 1890.41 428.646 1896.4 418.26 1898.8 411.896 1899.67 409.587 1902.05 408.211 1904.48 408.606 1911.19 409.717 1923.19 409.717 1929.9 408.606 1932.33 408.208 1934.71 409.585 1935.58 411.896 1937.98 418.26 1943.97 428.646 1948.28 433.905 1949.85 435.808 1949.85 438.557 1948.28 440.461 1943.97 445.719 1937.98 456.106 1935.58 462.469 1934.71 464.778 1932.33 466.152 1929.9 465.753Z" fill="#707070"/><path d="M1936.96 477.971C1936.53 477.971 1936.13 477.94 1935.7 477.853 1926.55 476.034 1907.87 476.034 1898.71 477.853 1895.49 478.477 1892.3 476.634 1891.24 473.532 1888.23 464.679 1878.9 448.525 1872.74 441.497 1870.58 439.026 1870.58 435.339 1872.74 432.868 1878.9 425.834 1888.23 409.661 1891.24 400.833 1892.3 397.728 1895.49 395.883 1898.71 396.506 1907.87 398.325 1926.55 398.325 1935.7 396.506 1938.92 395.879 1942.11 397.723 1943.18 400.827 1946.19 409.68 1955.51 425.834 1961.68 432.862 1963.84 435.333 1963.84 439.045 1961.68 441.491 1955.51 448.525 1946.19 464.698 1943.18 473.526 1942.25 476.221 1939.7 477.971 1936.96 477.971ZM1917.2 473.768C1924.37 473.768 1931.52 474.228 1936.23 475.165 1938.11 475.531 1939.98 474.457 1940.61 472.645 1943.7 463.556 1953.3 446.923 1959.64 439.691 1960.9 438.247 1960.9 436.093 1959.64 434.65 1953.3 427.417 1943.7 410.785 1940.61 401.696 1939.98 399.885 1938.11 398.812 1936.23 399.181 1926.8 401.05 1907.6 401.05 1898.17 399.181 1896.29 398.815 1894.43 399.886 1893.8 401.696 1890.69 410.785 1881.09 427.417 1874.76 434.65 1873.5 436.093 1873.5 438.247 1874.76 439.691 1881.09 446.923 1890.7 463.556 1893.8 472.645 1894.42 474.456 1896.29 475.53 1898.17 475.165 1902.89 474.246 1910.03 473.768 1917.2 473.768ZM1930.74 467.181C1930.39 467.181 1930.03 467.144 1929.68 467.094 1923.14 466.027 1911.24 466.027 1904.7 467.094 1901.64 467.591 1898.63 465.853 1897.52 462.96 1895.19 456.764 1889.23 446.464 1885.04 441.342 1883.08 438.927 1883.08 435.47 1885.04 433.054 1889.23 427.926 1895.19 417.614 1897.52 411.437 1898.62 408.52 1901.63 406.787 1904.7 407.296 1911.24 408.37 1923.14 408.37 1929.67 407.296 1932.74 406.787 1935.76 408.537 1936.86 411.437 1939.19 417.633 1945.15 427.926 1949.34 433.054 1951.29 435.47 1951.29 438.927 1949.34 441.342 1945.15 446.464 1939.19 456.782 1936.86 462.96 1935.89 465.511 1933.41 467.181 1930.73 467.181ZM1917.2 463.556C1921.95 463.556 1926.68 463.841 1930.11 464.406 1931.91 464.688 1933.65 463.679 1934.31 461.985 1936.78 455.466 1942.82 444.999 1947.23 439.604 1948.36 438.195 1948.36 436.183 1947.23 434.774 1942.8 429.373 1936.76 418.905 1934.31 412.387 1933.67 410.686 1931.92 409.673 1930.12 409.965 1923.23 411.095 1911.15 411.095 1904.26 409.965 1902.47 409.683 1900.72 410.692 1900.07 412.387 1897.61 418.905 1891.57 429.373 1887.16 434.774 1886.02 436.183 1886.02 438.195 1887.16 439.604 1891.58 445.005 1897.63 455.472 1900.07 461.991 1900.72 463.689 1902.47 464.699 1904.26 464.406 1907.7 463.847 1912.45 463.556 1917.2 463.556ZM1859.73 455.69 1851.61 455.69C1850.48 455.686 1849.57 454.774 1849.57 453.647L1849.57 417.527C1849.57 416.398 1850.49 415.485 1851.62 415.485L1859.73 415.485C1860.86 415.485 1861.78 416.402 1861.78 417.533L1861.78 453.628C1861.79 454.76 1860.88 455.683 1859.74 455.69 1859.74 455.69 1859.74 455.69 1859.73 455.69Z" fill="#707070"/><path d="M1859.73 457.049 1851.61 457.049C1849.73 457.042 1848.22 455.523 1848.21 453.647L1848.21 417.527C1848.22 415.651 1849.73 414.132 1851.61 414.125L1859.73 414.125C1861.61 414.128 1863.13 415.649 1863.14 417.527L1863.14 453.628C1863.15 455.511 1861.63 457.045 1859.75 457.055 1859.74 457.055 1859.74 457.055 1859.73 457.055ZM1851.61 416.844C1851.23 416.844 1850.93 417.15 1850.93 417.527L1850.93 453.628C1850.93 454.001 1851.24 454.311 1851.61 454.311L1859.73 454.311C1860.1 454.311 1860.41 454.001 1860.41 453.628L1860.41 417.527C1860.41 417.15 1860.11 416.844 1859.73 416.844L1851.61 416.844ZM1974.63 455.69 1982.75 455.69C1983.88 455.686 1984.79 454.77 1984.79 453.641L1984.79 417.527C1984.79 416.396 1983.87 415.478 1982.74 415.478L1974.63 415.478C1973.5 415.478 1972.58 416.396 1972.58 417.527L1972.58 453.628C1972.57 454.76 1973.48 455.683 1974.62 455.69 1974.62 455.69 1974.62 455.69 1974.63 455.69ZM1897.09 492.455 1897.09 500.576C1897.09 501.693 1898.01 502.618 1899.14 502.618L1935.24 502.618C1936.37 502.615 1937.29 501.699 1937.29 500.57L1937.29 492.462C1937.29 491.33 1936.37 490.413 1935.24 490.413L1899.14 490.413C1898.01 490.416 1897.1 491.332 1897.1 492.462Z" fill="#707070"/></g></g></g><g clip-path="url(#clip16)"><g clip-path="url(#clip17)"><g clip-path="url(#clip18)"><path d="M58.8922 117.511 58.8922 74.0157C58.8956 72.889 59.8081 71.9765 60.9347 71.9731L89.462 71.9731C90.591 71.9766 91.5045 72.8928 91.5045 74.0219L91.5045 117.511C91.5011 118.64 90.5849 119.554 89.4558 119.554L60.9409 119.554C59.8094 119.554 58.8922 118.636 58.8922 117.505Z" fill="#707070" transform="matrix(6.16433e-17 1.00671 -1 6.12323e-17 2264 640)"/><path d="M89.462 120.913 60.9347 120.913C59.0562 120.91 57.5332 119.39 57.5264 117.511L57.5264 74.0157C57.5332 72.1371 59.0562 70.6169 60.9347 70.6135L89.462 70.6135C91.3381 70.6203 92.8573 72.1395 92.8641 74.0157L92.8641 117.511C92.8573 119.387 91.3381 120.907 89.462 120.913ZM60.9347 73.339C60.5576 73.339 60.2518 73.6447 60.2518 74.0219L60.2518 117.511C60.2518 117.884 60.5622 118.194 60.9347 118.194L89.462 118.194C89.8345 118.194 90.1449 117.884 90.1449 117.511L90.1449 74.0157C90.1449 73.6385 89.8391 73.3327 89.462 73.3327L60.9347 73.3327Z" fill="#707070" transform="matrix(6.16433e-17 1.00671 -1 6.12323e-17 2264 640)"/><path d="M130.518 78.4732 19.8666 78.4732C18.7376 78.4733 17.8213 77.5598 17.8179 76.4307L17.8179 47.9034C17.8179 46.772 18.7352 45.8547 19.8666 45.8547L130.524 45.8547C131.655 45.8547 132.573 46.772 132.573 47.9034L132.573 76.4307C132.569 77.5598 131.653 78.4733 130.524 78.4733Z" fill="#707070" transform="matrix(6.16433e-17 1.00671 -1 6.12323e-17 2264 640)"/><path d="M110.961 58.2527 84.2346 58.2527C83.9366 57.5649 83.5617 56.913 83.1171 56.3095L96.4774 33.1773C97.1172 32.0443 96.7304 30.6076 95.6082 29.949L92.9014 28.3783C91.767 27.7343 90.3257 28.1216 89.6669 29.2474L76.3065 52.3797C75.9332 52.3399 75.5582 52.3171 75.1828 52.3114 74.8103 52.3114 74.4378 52.33 74.0591 52.3734L60.7112 29.2288C60.0526 28.1066 58.6159 27.7198 57.4829 28.3596L54.7699 29.9241C53.644 30.583 53.2567 32.0243 53.9007 33.1587L67.2672 56.3157C66.8202 56.9055 66.4477 57.5574 66.1435 58.2527L39.4167 58.2527C38.1166 58.2595 37.0643 59.3118 37.0575 60.6119L37.0575 63.7471C37.0575 65.0446 38.1129 66.1125 39.4167 66.1125L66.1435 66.1125C66.4539 66.814 66.8264 67.4597 67.261 68.0557L53.9007 91.1879C53.2603 92.3227 53.6469 93.7614 54.7699 94.4224L57.4767 95.9869C58.6111 96.6309 60.0524 96.2436 60.7112 95.1178L74.0715 71.9731C74.444 72.0042 74.8228 72.0352 75.2015 72.0352 75.574 72.0352 75.9465 72.0228 76.319 71.9731L89.6669 95.1053C90.3125 96.2228 91.7777 96.6202 92.8952 95.9745L95.6082 94.4038C96.7304 93.7452 97.1172 92.3085 96.4774 91.1755L83.1109 68.037C83.5579 67.441 83.9304 66.7954 84.2346 66.1001L110.961 66.1001C112.253 66.1001 113.327 65.0446 113.327 63.7347L113.327 60.5933C113.31 59.297 112.258 58.2532 110.961 58.2465Z" fill="#707070" transform="matrix(6.16433e-17 1.00671 -1 6.12323e-17 2264 640)"/><path d="M58.6501 97.657C58.0002 97.6588 57.3616 97.4873 56.8 97.1603L54.0931 95.5958C52.3157 94.5875 51.6921 92.3292 52.7003 90.5518 52.7092 90.5361 52.7182 90.5205 52.7273 90.505L65.6655 68.1115C65.5289 67.9067 65.4109 67.677 65.293 67.4597L39.4167 67.4597C37.3594 67.4597 35.6917 65.7919 35.6917 63.7347L35.6917 60.5933C35.6917 58.536 37.3594 56.8683 39.4167 56.8683L65.293 56.8683C65.4109 56.6448 65.5289 56.4399 65.6655 56.2226L52.7273 33.8292C51.7084 32.0449 52.318 29.7729 54.0931 28.7383L56.8 27.1738C58.5826 26.1539 60.8541 26.7606 61.8908 28.5335L74.8228 50.9331C75.0666 50.9161 75.3114 50.9161 75.5553 50.9331L88.4935 28.5335C89.5259 26.7554 91.8006 26.1451 93.5843 27.1676L96.2849 28.7383C98.063 29.7707 98.6733 32.0454 97.6508 33.8292L84.7126 56.2288C84.8492 56.4337 84.9671 56.651 85.0851 56.8745L110.961 56.8745C113.019 56.8745 114.686 58.5422 114.686 60.5995L114.686 63.7347C114.686 65.7919 113.019 67.4597 110.961 67.4597L85.0851 67.4597C84.9671 67.6832 84.8492 67.888 84.7126 68.1053L97.6508 90.5112C98.6823 92.2832 98.0821 94.5559 96.3101 95.5875 96.3017 95.5924 96.2933 95.5972 96.2849 95.602L93.5843 97.1665C91.8001 98.1854 89.5281 97.5758 88.4935 95.8007L75.5553 73.401C75.3114 73.4178 75.0667 73.4178 74.8228 73.401L61.8846 95.8007C61.215 96.9502 59.9866 97.659 58.6563 97.6632ZM39.4353 59.6124C38.8798 59.6124 38.4295 60.0626 38.4295 60.6181L38.4295 63.7533C38.4295 64.2934 38.8703 64.7528 39.4353 64.7528L66.1621 64.7528C66.7023 64.7528 67.1989 65.0819 67.4038 65.5723 67.6521 66.1683 67.9812 66.7271 68.3723 67.2424 68.6941 67.6779 68.7282 68.2624 68.4592 68.7324L55.0927 91.8708C54.9582 92.1016 54.9224 92.3769 54.9934 92.6344 55.0565 92.8949 55.2222 93.1188 55.4528 93.2553L58.1596 94.8136C58.6376 95.0867 59.2461 94.9377 59.5254 94.4411L72.8857 71.2902C73.1522 70.8223 73.6737 70.5604 74.2081 70.6259 74.8724 70.6942 75.487 70.6942 76.1513 70.6259 76.6873 70.5612 77.2101 70.8226 77.4799 71.2902L90.8589 94.4224C91.132 94.9022 91.7423 95.0696 92.222 94.7964 92.2229 94.7959 92.2238 94.7954 92.2247 94.7949L94.9253 93.2304C95.4031 92.9476 95.5638 92.3326 95.2854 91.8522L81.9375 68.72C81.6658 68.2485 81.7 67.6606 82.0244 67.2238 82.4155 66.7147 82.7384 66.1497 82.9929 65.5537 83.213 65.0639 83.6976 64.7465 84.2346 64.7404L110.961 64.7404C111.517 64.7404 111.967 64.2901 111.967 63.7347L111.967 60.5933C111.964 60.0402 111.514 59.5937 110.961 59.5937L84.2346 59.5937C83.6932 59.5962 83.2034 59.273 82.9929 58.7742 82.741 58.1793 82.4156 57.6183 82.0244 57.1042 81.7 56.6673 81.6658 56.0795 81.9375 55.608L95.2978 32.4758C95.575 32.0063 95.4191 31.401 94.9497 31.1239 94.9416 31.1191 94.9335 31.1144 94.9253 31.1099L92.2185 29.5454C91.749 29.2682 91.1438 29.4241 90.8666 29.8935 90.8618 29.9016 90.8572 29.9097 90.8526 29.9179L77.4985 53.0564C77.2312 53.5265 76.7065 53.7888 76.17 53.7206 75.524 53.6524 74.8727 53.6524 74.2267 53.7206 73.6908 53.7854 73.1679 53.524 72.8982 53.0564L59.5378 29.9055C59.2647 29.4258 58.6544 29.2583 58.1747 29.5315 58.1738 29.532 58.1729 29.5325 58.172 29.533L55.4714 31.1037C54.9917 31.3769 54.8242 31.9872 55.0974 32.4669 55.0979 32.4678 55.0984 32.4687 55.0989 32.4695L68.4592 55.5956C68.7336 56.0686 68.6994 56.6597 68.3723 57.098 67.9815 57.6102 67.6562 58.1691 67.4038 58.7618 67.1855 59.2541 66.7006 59.5742 66.1621 59.5813L39.4353 59.5813 39.4353 59.6124Z" fill="#707070" transform="matrix(6.16433e-17 1.00671 -1 6.12323e-17 2264 640)"/><path d="M93.9568 22.8342C84.694 24.6719 65.6965 24.6719 56.4213 22.8342 53.8677 22.3227 51.3315 23.7875 50.4985 26.255 47.4564 35.195 37.9577 51.6533 31.7432 58.7494 30.021 60.7072 30.021 63.6394 31.7432 65.5972 37.9701 72.7119 47.4689 89.1516 50.4985 98.0916 51.3339 100.557 53.8694 102.018 56.4213 101.506 65.6841 99.6747 84.6816 99.6747 93.9568 101.506 96.5087 102.018 99.0441 100.557 99.8796 98.0916 102.922 89.1516 112.42 72.6933 118.635 65.5972 120.357 63.6394 120.357 60.7072 118.635 58.7494 112.408 51.6347 102.909 35.195 99.8796 26.255 99.0329 23.7992 96.5063 22.3425 93.9568 22.8404ZM87.8975 90.7533C81.1925 89.6482 69.1918 89.6482 62.4806 90.7533 60.0453 91.1479 57.6693 89.7717 56.8 87.4629 54.3974 81.0994 48.4063 70.719 44.0977 65.4606 42.5283 63.557 42.5283 60.8081 44.0977 58.9046 48.4063 53.6461 54.3974 43.2596 56.8 36.8961 57.6693 34.5873 60.0453 33.2111 62.4806 33.6057 69.1856 34.717 81.1925 34.717 87.8975 33.6057 90.3349 33.2078 92.7145 34.5847 93.5843 36.8961 95.9807 43.2596 101.972 53.6461 106.28 58.9046 107.85 60.8081 107.85 63.557 106.28 65.4606 101.972 70.719 95.9807 81.1056 93.5843 87.4691 92.7122 89.778 90.3332 91.1519 87.8975 90.7533Z" fill="#707070" transform="matrix(6.16433e-17 1.00671 -1 6.12323e-17 2264 640)"/><path d="M94.9626 102.971C94.5342 102.971 94.1306 102.94 93.7023 102.853 84.545 101.034 65.8703 101.034 56.7131 102.853 53.4928 103.477 50.3048 101.634 49.2382 98.5323 46.2272 89.6793 36.9023 73.5252 30.7374 66.4974 28.5774 64.0264 28.5774 60.3388 30.7374 57.8678 36.9023 50.8338 46.2272 34.6611 49.2382 25.8328 50.3024 22.7284 53.491 20.8825 56.7131 21.5056 65.8703 23.3247 84.545 23.3247 93.7023 21.5056 96.923 20.879 100.113 22.7229 101.177 25.8266 104.188 34.6797 113.513 50.8338 119.678 57.8616 121.838 60.3325 121.838 64.0451 119.678 66.4912 113.513 73.5252 104.188 89.6979 101.177 98.5261 100.252 101.221 97.7004 102.971 94.9626 102.971ZM75.2015 98.7683C82.3659 98.7683 89.5179 99.2277 94.23 100.165 96.1128 100.531 97.978 99.4565 98.6068 97.6445 101.705 88.5556 111.303 71.9235 117.635 64.6908 118.897 63.2471 118.897 61.0932 117.635 59.6496 111.303 52.4169 101.705 35.7848 98.6068 26.6958 97.9778 24.8845 96.1115 23.8124 94.23 24.1814 84.7995 26.0501 65.5972 26.0501 56.1729 24.1814 54.2918 23.8153 52.4273 24.8863 51.7961 26.6958 48.6919 35.7848 39.0938 52.4169 32.7613 59.6496 31.4998 61.0932 31.4998 63.2471 32.7613 64.6908 39.0938 71.9235 48.6981 88.5556 51.7961 97.6446 52.4224 99.4556 54.2855 100.53 56.1667 100.165 60.8851 99.2463 68.0308 98.7683 75.2015 98.7683ZM88.7356 92.1812C88.3941 92.1812 88.0341 92.144 87.6802 92.0943 81.1428 91.0265 69.2415 91.0265 62.7041 92.0943 59.6434 92.591 56.6261 90.8526 55.5211 87.9596 53.1929 81.7637 47.2329 71.464 43.0423 66.3422 41.0841 63.9265 41.0841 60.4698 43.0423 58.0541 47.2329 52.926 53.1929 42.614 55.5211 36.4367 56.6219 33.5204 59.6287 31.787 62.7041 32.2957 69.2415 33.3698 81.1428 33.3698 87.674 32.2957 90.7409 31.7866 93.7581 33.5374 94.857 36.4367 97.1913 42.6326 103.151 52.926 107.336 58.0541 109.294 60.4698 109.294 63.9265 107.336 66.3422 103.151 71.464 97.1913 81.7823 94.857 87.9596 93.8885 90.5112 91.4052 92.1812 88.7294 92.1812ZM75.2015 88.5556C79.9508 88.5556 84.6816 88.8411 88.1148 89.4061 89.9078 89.688 91.6541 88.679 92.3054 86.9849 94.7763 80.4661 100.817 69.9989 105.225 64.6038 106.363 63.195 106.363 61.1826 105.225 59.7738 100.798 54.3725 94.7577 43.9053 92.3116 37.3865 91.668 35.6858 89.9158 34.6734 88.121 34.9653 81.2297 36.0952 69.1545 36.0952 62.2633 34.9653 60.4703 34.6834 58.724 35.6924 58.0727 37.3865 55.608 43.9053 49.5673 54.3725 45.1594 59.7738 44.0212 61.1826 44.0212 63.195 45.1594 64.6038 49.5797 70.0051 55.6266 80.4723 58.0727 86.9911 58.7185 88.6894 60.4701 89.6988 62.2633 89.4061 65.7027 88.8474 70.4521 88.5556 75.2015 88.5556ZM17.731 80.6896 9.61049 80.6896C8.48384 80.6862 7.57136 79.7737 7.56795 78.6471L7.56795 42.527C7.57137 41.398 8.48763 40.4845 9.6167 40.4845L17.731 40.4845C18.8625 40.4845 19.7797 41.4018 19.7797 42.5332L19.7797 78.6285C19.7866 79.7599 18.8749 80.6827 17.7434 80.6896 17.7393 80.6896 17.7351 80.6896 17.731 80.6896Z" fill="#707070" transform="matrix(6.16433e-17 1.00671 -1 6.12323e-17 2264 640)"/><path d="M17.731 82.0492 9.61049 82.0492C7.73435 82.0424 6.21514 80.5232 6.20833 78.6471L6.20833 42.527C6.21514 40.6509 7.73435 39.1317 9.61049 39.1249L17.731 39.1249C19.6095 39.1283 21.1325 40.6485 21.1394 42.527L21.1394 78.6285C21.1496 80.5108 19.632 82.0451 17.7497 82.0554 17.7434 82.0554 17.7372 82.0555 17.731 82.0555ZM9.61049 41.8441C9.23333 41.8441 8.92757 42.1499 8.92757 42.527L8.92757 78.6285C8.92757 79.001 9.23799 79.3114 9.61049 79.3114L17.731 79.3114C18.1035 79.3114 18.4139 79.001 18.4139 78.6285L18.4139 42.527C18.4139 42.1499 18.1081 41.8441 17.731 41.8441L9.61049 41.8441ZM132.628 80.6896 140.749 80.6896C141.878 80.6862 142.792 79.77 142.792 78.6409L142.792 42.527C142.792 41.3955 141.874 40.4783 140.743 40.4783L132.628 40.4783C131.497 40.4783 130.58 41.3955 130.58 42.527L130.58 78.6285C130.573 79.7599 131.485 80.6827 132.616 80.6896 132.62 80.6896 132.624 80.6896 132.628 80.6896ZM55.0927 117.455 55.0927 125.576C55.0927 126.693 56.0115 127.618 57.1414 127.618L93.2429 127.618C94.3719 127.615 95.2854 126.699 95.2854 125.57L95.2854 117.462C95.2854 116.33 94.3681 115.413 93.2366 115.413L57.1414 115.413C56.0124 115.416 55.0989 116.332 55.0989 117.462Z" fill="#707070" transform="matrix(6.16433e-17 1.00671 -1 6.12323e-17 2264 640)"/></g></g></g><g clip-path="url(#clip19)"><g clip-path="url(#clip20)"><g clip-path="url(#clip21)"><path d="M2194.99 975.754 2193.97 975.643 2193.97 975.584 2193.95 975.641 2192.98 975.305 2193 975.249 2192.97 975.299 2192.1 974.756 2192.13 974.706 2192.09 974.748 2191.36 974.023 2191.4 973.981 2191.35 974.013 2190.81 973.144 2190.86 973.112 2190.8 973.132 2190.46 972.164 2190.52 972.144 2190.46 972.15 2190.34 971.13 2190.4 971.123 2190.34 971.116 2190.46 970.096 2190.52 970.102 2190.46 970.083 2190.8 969.114 2190.86 969.134 2190.81 969.102 2191.35 968.233 2191.4 968.265 2191.36 968.222 2192.09 967.498 2192.13 967.541 2192.1 967.49 2192.97 966.946 2193 966.996 2192.98 966.94 2193.95 966.605 2193.97 966.661 2193.97 966.602 2194.99 966.492 2195 966.551 2195 966.492 2196.02 966.613 2196.02 966.672 2196.04 966.616 2197 966.961 2196.96 967.074 2196 966.731 2195 966.612 2193.99 966.72 2193.03 967.051 2192.17 967.588 2191.45 968.302 2190.91 969.16 2190.57 970.116 2190.46 971.123 2190.57 972.13 2190.91 973.086 2191.45 973.943 2192.17 974.658 2193.03 975.195 2193.99 975.525 2195 975.634 2196 975.515 2196.96 975.173 2197 975.285 2196.04 975.63 2196.02 975.574 2196.02 975.633 2195 975.754 2195 975.694Z" fill="#2C2C2C"/><path d="M2194.99 966.492 2195 966.551 2195 966.492 2196.02 966.613 2196.02 966.672 2196.04 966.616 2197 966.961 2196.96 967.074 2196 966.731 2195 966.612 2193.99 966.72 2193.03 967.051 2192.17 967.588 2191.45 968.302 2190.91 969.16 2190.57 970.116 2190.46 971.123 2190.57 972.13 2190.91 973.086 2191.45 973.943 2192.17 974.658 2193.03 975.195 2193.99 975.526 2195 975.634 2196 975.515 2196.96 975.173 2197 975.285 2196.04 975.63 2196.02 975.574 2196.02 975.633 2195 975.754 2195 975.695 2194.99 975.754 2193.97 975.644 2193.97 975.584 2193.95 975.641 2192.98 975.305 2193 975.249 2192.97 975.3 2192.1 974.756 2192.13 974.706 2192.09 974.748 2191.36 974.024 2191.4 973.981 2191.35 974.013 2190.81 973.145 2190.86 973.113 2190.8 973.133 2190.46 972.164 2190.52 972.144 2190.46 972.151 2190.34 971.13 2190.4 971.124 2190.34 971.117 2190.46 970.096 2190.52 970.103 2190.46 970.083 2190.8 969.114 2190.86 969.134 2190.81 969.102 2191.35 968.233 2191.4 968.265 2191.36 968.222 2192.09 967.498 2192.13 967.541 2192.1 967.49 2192.97 966.946 2193 966.997 2192.98 966.941 2193.95 966.605 2193.97 966.662 2193.97 966.602 2194.99 966.492M2194.88 964.175 2194.84 964.277 2194.26 964.479 2193.63 964.406 2193.58 964.314 2193.46 964.385 2193.33 964.37 2193.32 964.478 2192.79 964.807 2192.18 964.872 2192.1 964.792 2192 964.892 2191.87 964.906 2191.88 965.008 2191.44 965.453 2190.85 965.656 2190.76 965.597 2190.68 965.714 2190.55 965.76 2190.59 965.867 2190.26 966.389 2189.73 966.717 2189.63 966.68 2189.58 966.81 2189.47 966.88 2189.53 966.97 2189.32 967.558 2188.88 967.993 2188.77 967.981 2188.76 968.116 2188.66 968.211 2188.74 968.288 2188.67 968.908 2188.34 969.436 2188.23 969.448 2188.24 969.585 2188.17 969.698 2188.26 969.755 2188.33 970.374 2188.13 970.955 2188.02 970.992 2188.07 971.124 2188.02 971.255 2188.13 971.291 2188.33 971.873 2188.26 972.491 2188.17 972.548 2188.24 972.662 2188.23 972.791 2188.33 972.803 2188.67 973.338 2188.74 973.958 2188.66 974.035 2188.76 974.13 2188.77 974.258 2188.88 974.247 2189.32 974.689 2189.53 975.276 2189.47 975.367 2189.58 975.438 2189.63 975.566 2189.73 975.53 2190.26 975.859 2190.59 976.379 2190.55 976.485 2190.68 976.531 2190.76 976.649 2190.85 976.589 2191.44 976.792 2191.89 977.238 2191.87 977.339 2192 977.353 2192.1 977.45 2192.18 977.372 2192.79 977.438 2193.32 977.767 2193.33 977.876 2193.47 977.86 2193.58 977.93 2193.63 977.84 2194.25 977.766 2194.84 977.968 2194.88 978.073 2195.01 978.027 2195.14 978.071 2195.17 977.967 2195.76 977.759 2196.68 977.859 2196.72 977.475 2198.14 977.306 2198.1 976.923 2199.45 976.443 2198.8 974.642 2198.76 974.53 2198.12 972.733 2196.32 973.374 2195.56 973.644 2194.99 973.712 2194.41 973.649 2193.86 973.46 2193.36 973.152 2192.95 972.741 2192.64 972.25 2192.45 971.701 2192.38 971.124 2192.45 970.546 2192.64 969.996 2192.95 969.505 2193.36 969.094 2193.86 968.786 2194.41 968.596 2194.98 968.534 2195.56 968.603 2196.32 968.873 2198.12 969.515 2198.76 967.716 2198.8 967.603 2199.45 965.803 2198.1 965.323 2198.14 964.941 2196.72 964.772 2196.68 964.388 2195.75 964.488 2195.17 964.279 2195.13 964.176 2195.01 964.221 2194.88 964.175 2194.88 964.175Z" fill="#2C2C2C"/><path d="M2194.99 967.71 2193.94 967.686 2193.95 967.626 2193.93 967.684 2192.91 967.43 2192.93 967.372 2192.9 967.425 2191.96 966.955 2191.99 966.901 2191.95 966.947 2191.14 966.282 2191.18 966.236 2191.13 966.273 2190.48 965.446 2190.53 965.409 2190.48 965.435 2190.03 964.486 2190.08 964.46 2190.02 964.473 2189.79 963.449 2189.85 963.436 2189.79 963.436 2189.79 962.387 2189.85 962.387 2189.79 962.374 2190.02 961.349 2190.08 961.362 2190.03 961.337 2190.48 960.388 2190.53 960.414 2190.48 960.377 2191.13 959.551 2191.18 959.587 2191.14 959.541 2191.95 958.875 2191.99 958.922 2191.96 958.868 2192.9 958.397 2192.93 958.45 2192.91 958.392 2193.93 958.138 2193.95 958.197 2193.94 958.137 2194.99 958.113 2195 958.173 2195.01 958.114 2196.04 958.32 2196.02 958.379 2196.05 958.325 2197.01 958.751 2196.96 958.861 2196.01 958.436 2194.99 958.232 2193.95 958.256 2192.95 958.507 2192.02 958.972 2191.22 959.629 2190.58 960.445 2190.14 961.382 2189.91 962.393 2189.91 963.43 2190.14 964.441 2190.58 965.377 2191.22 966.194 2192.02 966.851 2192.95 967.315 2193.95 967.567 2194.99 967.591 2196.01 967.387 2196.96 966.963 2197.01 967.072 2196.05 967.499 2196.02 967.444 2196.04 967.502 2195.01 967.709 2195 967.65Z" fill="#2C2C2C"/><path d="M2194.99 958.113 2195 958.173 2195.01 958.114 2196.04 958.32 2196.02 958.379 2196.05 958.324 2197.01 958.751 2196.96 958.86 2196.01 958.436 2194.99 958.232 2193.95 958.256 2192.95 958.507 2192.02 958.972 2191.22 959.629 2190.58 960.445 2190.14 961.382 2189.91 962.393 2189.91 963.43 2190.14 964.44 2190.58 965.377 2191.22 966.194 2192.02 966.851 2192.95 967.315 2193.95 967.566 2194.99 967.59 2196.01 967.387 2196.96 966.963 2197.01 967.072 2196.05 967.498 2196.02 967.444 2196.04 967.502 2195.01 967.709 2195 967.65 2194.99 967.71 2193.94 967.686 2193.95 967.626 2193.93 967.684 2192.91 967.43 2192.93 967.372 2192.9 967.425 2191.96 966.954 2191.99 966.901 2191.95 966.947 2191.14 966.282 2191.18 966.236 2191.13 966.273 2190.48 965.445 2190.53 965.409 2190.48 965.434 2190.03 964.486 2190.08 964.46 2190.02 964.473 2189.79 963.449 2189.85 963.436 2189.79 963.436 2189.79 962.386 2189.85 962.386 2189.79 962.373 2190.02 961.349 2190.08 961.362 2190.03 961.337 2190.48 960.388 2190.53 960.413 2190.48 960.377 2191.13 959.55 2191.18 959.587 2191.14 959.54 2191.95 958.875 2191.99 958.921 2191.96 958.868 2192.9 958.396 2192.93 958.45 2192.91 958.392 2193.93 958.138 2193.95 958.196 2193.94 958.136 2194.99 958.113M2195.08 955.804 2195.05 955.892 2194.42 956.047 2193.8 955.923 2193.75 955.83 2193.63 955.89 2193.51 955.864 2193.49 955.965 2192.92 956.25 2192.29 956.264 2192.22 956.183 2192.12 956.268 2191.99 956.271 2191.99 956.372 2191.5 956.776 2190.87 956.932 2190.8 956.872 2190.72 956.97 2190.6 956.999 2190.63 957.091 2190.23 957.601 2189.67 957.883 2189.57 957.837 2189.51 957.961 2189.39 958.022 2189.44 958.117 2189.17 958.685 2188.67 959.096 2188.58 959.075 2188.55 959.193 2188.45 959.274 2188.52 959.351 2188.38 959.974 2187.98 960.477 2187.88 960.477 2187.88 960.606 2187.81 960.702 2187.88 960.762 2187.88 961.407 2187.61 961.979 2187.51 962.002 2187.54 962.133 2187.48 962.246 2187.57 962.289 2187.71 962.912 2187.57 963.544 2187.49 963.584 2187.54 963.692 2187.51 963.823 2187.61 963.845 2187.88 964.417 2187.88 965.063 2187.81 965.122 2187.88 965.218 2187.88 965.348 2187.98 965.348 2188.38 965.85 2188.52 966.473 2188.45 966.551 2188.55 966.632 2188.58 966.756 2188.68 966.734 2189.17 967.14 2189.44 967.707 2189.39 967.803 2189.51 967.865 2189.57 967.987 2189.67 967.942 2190.23 968.224 2190.63 968.732 2190.6 968.824 2190.72 968.853 2190.8 968.957 2190.88 968.894 2191.5 969.047 2191.99 969.452 2191.99 969.553 2192.12 969.556 2192.22 969.639 2192.28 969.56 2192.92 969.575 2193.49 969.859 2193.51 969.961 2193.64 969.934 2193.75 969.991 2193.8 969.903 2194.42 969.777 2195.04 969.932 2195.08 970.021 2195.2 969.971 2195.33 970.003 2195.35 969.9 2195.93 969.645 2196.86 969.666 2196.87 969.285 2198.28 969.002 2198.21 968.63 2199.53 968.043 2198.75 966.297 2198.71 966.188 2197.93 964.442 2196.18 965.219 2195.42 965.557 2194.82 965.677 2194.21 965.663 2193.62 965.515 2193.07 965.24 2192.6 964.852 2192.22 964.37 2191.96 963.816 2191.82 963.219 2191.82 962.607 2191.96 962.01 2192.22 961.456 2192.6 960.974 2193.07 960.586 2193.62 960.311 2194.21 960.163 2194.82 960.149 2195.42 960.269 2196.18 960.607 2197.93 961.385 2198.7 959.638 2198.75 959.529 2199.53 957.784 2198.21 957.196 2198.28 956.825 2196.87 956.541 2196.86 956.161 2195.93 956.182 2195.36 955.927 2195.33 955.823 2195.2 955.856 2195.08 955.804 2195.08 955.804Z" fill="#2C2C2C"/><path d="M2194.02 959.821 2194.01 959.761 2194 959.821 2192.95 959.708 2192.96 959.648 2192.94 959.705 2191.94 959.377 2191.95 959.32 2191.93 959.372 2191.01 958.842 2191.04 958.79 2191 958.834 2190.22 958.127 2190.26 958.083 2190.21 958.117 2189.59 957.262 2189.64 957.227 2189.58 957.251 2189.15 956.286 2189.21 956.262 2189.15 956.274 2188.93 955.241 2188.99 955.228 2188.93 955.228 2188.93 954.171 2188.99 954.171 2188.93 954.159 2189.15 953.126 2189.21 953.138 2189.15 953.114 2189.58 952.148 2189.64 952.173 2189.59 952.137 2190.21 951.282 2190.26 951.318 2190.22 951.273 2191 950.565 2191.04 950.609 2191.01 950.558 2191.93 950.028 2191.95 950.08 2191.94 950.023 2192.94 949.694 2192.96 949.751 2192.95 949.692 2194 949.579 2194.01 949.638 2194.02 949.579 2195.07 949.686 2195.06 949.745 2195.08 949.689 2196.08 950.012 2196.07 950.069 2196.1 950.017 2197.01 950.542 2196.95 950.646 2196.04 950.124 2195.05 949.804 2194.01 949.698 2192.97 949.81 2191.98 950.134 2191.08 950.658 2190.3 951.358 2189.69 952.203 2189.26 953.157 2189.05 954.177 2189.05 955.222 2189.26 956.243 2189.69 957.197 2190.3 958.042 2191.08 958.742 2191.98 959.266 2192.97 959.59 2194.01 959.701 2195.05 959.595 2196.04 959.276 2196.95 958.754 2197.01 958.858 2196.1 959.382 2196.07 959.331 2196.08 959.387 2195.08 959.71 2195.06 959.654 2195.07 959.713Z" fill="#2C2C2C"/><path d="M2194.02 949.579 2195.07 949.686 2195.06 949.745 2195.08 949.689 2196.08 950.012 2196.07 950.069 2196.1 950.017 2197.01 950.542 2196.95 950.646 2196.04 950.124 2195.05 949.804 2194.01 949.698 2192.97 949.81 2191.98 950.134 2191.08 950.657 2190.3 951.357 2189.69 952.202 2189.27 953.157 2189.05 954.177 2189.05 955.222 2189.27 956.243 2189.69 957.197 2190.3 958.042 2191.08 958.741 2191.98 959.265 2192.97 959.589 2194.01 959.701 2195.05 959.595 2196.04 959.275 2196.95 958.754 2197.01 958.857 2196.1 959.381 2196.07 959.33 2196.08 959.386 2195.08 959.71 2195.06 959.653 2195.07 959.713 2194.02 959.82 2194.01 959.761 2194 959.82 2192.95 959.707 2192.96 959.648 2192.94 959.705 2191.94 959.376 2191.96 959.32 2191.93 959.371 2191.01 958.841 2191.04 958.789 2191 958.834 2190.22 958.126 2190.26 958.082 2190.21 958.117 2189.59 957.261 2189.64 957.226 2189.58 957.25 2189.15 956.285 2189.21 956.261 2189.15 956.273 2188.93 955.24 2188.99 955.228 2188.93 955.228 2188.93 954.171 2188.99 954.171 2188.93 954.158 2189.15 953.125 2189.21 953.137 2189.15 953.113 2189.58 952.147 2189.64 952.172 2189.59 952.137 2190.21 951.282 2190.26 951.317 2190.22 951.272 2191 950.564 2191.04 950.608 2191.01 950.557 2191.93 950.027 2191.96 950.079 2191.94 950.022 2192.94 949.693 2192.96 949.75 2192.95 949.691 2194 949.578 2194.01 949.637 2194.02 949.579M2193.84 947.284 2193.81 947.4 2193.26 947.58 2192.69 947.523 2192.63 947.412 2192.47 947.501 2192.3 947.483 2192.29 947.608 2191.79 947.895 2191.22 947.956 2191.14 947.864 2191.01 947.979 2190.86 947.995 2190.87 948.108 2190.43 948.505 2189.89 948.683 2189.79 948.609 2189.68 948.749 2189.52 948.801 2189.56 948.917 2189.22 949.385 2188.73 949.673 2188.61 949.623 2188.54 949.779 2188.4 949.862 2188.46 949.966 2188.22 950.497 2187.79 950.885 2187.68 950.86 2187.64 951.023 2187.52 951.133 2187.6 951.222 2187.48 951.791 2187.14 952.26 2187.02 952.26 2187.02 952.427 2186.93 952.554 2187.02 952.622 2187.02 953.213 2186.78 953.742 2186.66 953.767 2186.7 953.931 2186.64 954.074 2186.74 954.121 2186.86 954.699 2186.74 955.27 2186.63 955.318 2186.7 955.468 2186.67 955.624 2186.78 955.649 2187.02 956.186 2187.02 956.763 2186.92 956.834 2187.02 956.97 2187.02 957.138 2187.14 957.138 2187.48 957.606 2187.6 958.172 2187.52 958.263 2187.64 958.377 2187.68 958.539 2187.79 958.514 2188.23 958.904 2188.46 959.436 2188.4 959.538 2188.54 959.619 2188.61 959.769 2188.72 959.721 2189.22 960.012 2189.56 960.48 2189.52 960.598 2189.68 960.651 2189.78 960.78 2189.87 960.712 2190.44 960.896 2190.87 961.289 2190.86 961.404 2191.02 961.421 2191.15 961.537 2191.23 961.444 2191.79 961.504 2192.29 961.791 2192.3 961.916 2192.47 961.898 2192.62 961.983 2192.68 961.877 2193.26 961.818 2193.81 961.999 2193.85 962.113 2194 962.062 2194.16 962.114 2194.2 962 2194.75 961.822 2195.33 961.884 2195.39 961.986 2195.53 961.905 2195.69 961.923 2195.71 961.803 2196.21 961.516 2197.17 961.418 2197.13 961.056 2198.49 960.62 2198.38 960.278 2199.62 959.567 2198.67 957.908 2198.61 957.804 2197.66 956.146 2196 957.094 2195.27 957.517 2194.65 957.714 2194.01 957.779 2193.37 957.71 2192.76 957.511 2192.21 957.188 2191.73 956.757 2191.35 956.237 2191.09 955.649 2190.96 955.02 2190.96 954.377 2191.09 953.748 2191.35 953.16 2191.73 952.64 2192.21 952.209 2192.76 951.887 2193.37 951.687 2194.01 951.618 2194.65 951.683 2195.27 951.88 2196 952.303 2197.66 953.252 2198.61 951.593 2198.67 951.49 2199.62 949.831 2198.38 949.123 2198.49 948.78 2197.13 948.341 2197.17 947.979 2196.21 947.881 2195.71 947.593 2195.69 947.473 2195.53 947.491 2195.39 947.408 2195.33 947.513 2194.75 947.575 2194.2 947.396 2194.16 947.283 2194 947.334 2193.84 947.284 2193.84 947.284Z" fill="#2C2C2C"/><path d="M2193.97 951.658 2192.9 951.552 2192.91 951.492 2192.89 951.549 2191.87 951.223 2191.88 951.167 2191.86 951.219 2190.92 950.686 2190.95 950.634 2190.91 950.679 2190.11 949.964 2190.15 949.919 2190.11 949.954 2189.47 949.088 2189.52 949.053 2189.47 949.077 2189.03 948.098 2189.08 948.074 2189.02 948.086 2188.8 947.037 2188.86 947.025 2188.8 947.025 2188.8 945.952 2188.86 945.952 2188.8 945.939 2189.02 944.891 2189.08 944.903 2189.03 944.879 2189.47 943.899 2189.52 943.923 2189.47 943.888 2190.11 943.022 2190.15 943.057 2190.11 943.012 2190.91 942.298 2190.95 942.342 2190.92 942.291 2191.86 941.758 2191.88 941.81 2191.87 941.753 2192.89 941.427 2192.91 941.484 2192.9 941.425 2193.97 941.319 2193.97 941.378 2193.98 941.319 2195.05 941.439 2195.04 941.498 2195.06 941.441 2196.08 941.781 2196.06 941.837 2196.09 941.786 2197.01 942.331 2196.95 942.434 2196.03 941.892 2195.03 941.557 2193.97 941.438 2192.92 941.543 2191.91 941.865 2190.99 942.391 2190.2 943.098 2189.57 943.953 2189.14 944.922 2188.92 945.958 2188.92 947.018 2189.14 948.055 2189.57 949.023 2190.2 949.879 2190.99 950.585 2191.91 951.112 2192.92 951.434 2193.97 951.538 2195.03 951.42 2196.03 951.084 2196.95 950.543 2197.01 950.645 2196.09 951.19 2196.06 951.139 2196.08 951.195 2195.06 951.535 2195.04 951.479 2195.05 951.538 2193.98 951.658 2193.97 951.598Z" fill="#2C2C2C"/><path d="M2193.98 941.319 2195.05 941.439 2195.04 941.498 2195.06 941.442 2196.08 941.781 2196.06 941.837 2196.09 941.786 2197.01 942.331 2196.95 942.434 2196.03 941.892 2195.03 941.557 2193.97 941.438 2192.92 941.543 2191.91 941.865 2190.99 942.391 2190.2 943.098 2189.57 943.953 2189.14 944.922 2188.92 945.958 2188.92 947.018 2189.14 948.055 2189.57 949.023 2190.2 949.879 2190.99 950.585 2191.91 951.112 2192.92 951.434 2193.97 951.538 2195.03 951.42 2196.03 951.084 2196.95 950.543 2197.01 950.646 2196.09 951.19 2196.06 951.139 2196.08 951.196 2195.06 951.535 2195.04 951.479 2195.05 951.538 2193.98 951.658 2193.97 951.598 2193.97 951.658 2192.9 951.552 2192.91 951.493 2192.89 951.549 2191.87 951.224 2191.88 951.167 2191.86 951.219 2190.92 950.686 2190.95 950.635 2190.91 950.679 2190.11 949.965 2190.15 949.92 2190.11 949.955 2189.47 949.089 2189.52 949.053 2189.47 949.078 2189.03 948.098 2189.08 948.074 2189.02 948.087 2188.8 947.038 2188.86 947.025 2188.8 947.025 2188.8 945.953 2188.86 945.953 2188.8 945.94 2189.02 944.891 2189.08 944.903 2189.03 944.879 2189.47 943.899 2189.52 943.924 2189.47 943.888 2190.11 943.022 2190.15 943.058 2190.11 943.013 2190.91 942.298 2190.95 942.343 2190.92 942.291 2191.86 941.758 2191.88 941.81 2191.87 941.753 2192.89 941.428 2192.91 941.485 2192.9 941.425 2193.97 941.319 2193.97 941.379 2193.98 941.319M2193.85 939.025 2193.82 939.126 2193.23 939.312 2192.62 939.243 2192.56 939.15 2192.44 939.223 2192.3 939.207 2192.29 939.309 2191.75 939.619 2191.13 939.68 2191.06 939.602 2190.96 939.697 2190.81 939.711 2190.82 939.817 2190.37 940.225 2189.78 940.412 2189.69 940.347 2189.6 940.468 2189.46 940.513 2189.5 940.615 2189.13 941.115 2188.6 941.417 2188.5 941.373 2188.44 941.51 2188.32 941.581 2188.37 941.672 2188.12 942.232 2187.65 942.648 2187.55 942.627 2187.52 942.762 2187.42 942.858 2187.49 942.937 2187.36 943.545 2187 944.041 2186.89 944.041 2186.89 944.188 2186.8 944.305 2186.89 944.368 2186.89 944.983 2186.64 945.542 2186.53 945.565 2186.56 945.71 2186.5 945.847 2186.6 945.891 2186.73 946.488 2186.6 947.086 2186.5 947.13 2186.56 947.267 2186.53 947.405 2186.63 947.427 2186.89 947.994 2186.89 948.616 2186.81 948.676 2186.89 948.788 2186.89 948.936 2187 948.936 2187.36 949.431 2187.49 950.04 2187.42 950.118 2187.52 950.214 2187.55 950.357 2187.66 950.334 2188.12 950.745 2188.37 951.3 2188.31 951.393 2188.44 951.467 2188.5 951.604 2188.6 951.559 2189.13 951.861 2189.49 952.36 2189.46 952.463 2189.6 952.508 2189.69 952.629 2189.78 952.564 2190.36 952.751 2190.82 953.16 2190.81 953.265 2190.96 953.279 2191.06 953.375 2191.13 953.297 2191.74 953.357 2192.29 953.668 2192.3 953.769 2192.44 953.754 2192.56 953.827 2192.62 953.734 2193.23 953.664 2193.82 953.85 2193.85 953.953 2193.99 953.906 2194.13 953.949 2194.16 953.85 2194.74 953.655 2195.36 953.716 2195.41 953.805 2195.54 953.733 2195.69 953.748 2195.7 953.636 2196.22 953.329 2197.16 953.223 2197.12 952.862 2198.49 952.404 2198.38 952.058 2199.63 951.32 2198.66 949.673 2198.6 949.57 2197.63 947.928 2195.98 948.896 2195.24 949.335 2194.61 949.543 2193.96 949.617 2193.31 949.552 2192.68 949.353 2192.11 949.027 2191.62 948.589 2191.23 948.058 2190.97 947.459 2190.83 946.817 2190.83 946.16 2190.97 945.518 2191.23 944.918 2191.62 944.388 2192.11 943.95 2192.68 943.624 2193.31 943.424 2193.96 943.359 2194.61 943.433 2195.24 943.641 2195.98 944.08 2197.63 945.049 2198.6 943.404 2198.66 943.301 2199.63 941.655 2198.38 940.919 2198.5 940.573 2197.12 940.114 2197.16 939.753 2196.23 939.648 2195.7 939.34 2195.69 939.228 2195.54 939.243 2195.41 939.17 2195.36 939.26 2194.74 939.321 2194.16 939.127 2194.13 939.027 2193.99 939.071 2193.85 939.025 2193.85 939.025Z" fill="#2C2C2C"/><path d="M2196.92 899.268 2197.04 899.268 2197.04 942.382 2196.92 942.382 2196.92 899.268Z" fill="#2C2C2C"/><path d="M2197.04 899.268 2197.04 942.382 2196.92 942.382 2196.92 899.268 2197.04 899.268M2198.95 897.357 2197.04 897.357 2196.92 897.357 2195.01 897.357 2195.01 899.268 2195.01 942.382 2195.01 944.293 2196.92 944.293 2197.04 944.293 2198.95 944.293 2198.95 942.382 2198.95 899.268 2198.95 897.357 2198.95 897.357Z" fill="#2C2C2C"/><path d="M2230.56 1021.69 2153.83 1021.69 2153.83 1021.63 2153.77 1021.63 2153.77 899.268 2153.83 899.268 2153.83 899.208 2230.56 899.208 2230.56 899.268 2230.62 899.268 2230.62 1021.63 2230.56 1021.63 2230.56 1021.69ZM2153.89 1021.57 2230.5 1021.57 2230.5 899.328 2153.89 899.328 2153.89 1021.57Z" fill="#2C2C2C"/><path d="M2230.56 899.208 2230.56 899.268 2230.62 899.268 2230.62 1021.63 2230.56 1021.63 2230.56 1021.69 2153.83 1021.69 2153.83 1021.63 2153.77 1021.63 2153.77 899.268 2153.83 899.268 2153.83 899.208 2230.56 899.208M2153.89 1021.57 2230.5 1021.57 2230.5 899.328 2153.89 899.328 2153.89 1021.57M2232.47 897.297 2230.56 897.297 2153.83 897.297 2151.92 897.297 2151.92 897.357 2151.86 897.357 2151.86 899.268 2151.86 1021.63 2151.86 1023.54 2151.92 1023.54 2151.92 1023.6 2153.83 1023.6 2230.56 1023.6 2232.47 1023.6 2232.47 1023.54 2232.53 1023.54 2232.53 1021.63 2232.53 899.268 2232.53 897.357 2232.47 897.357 2232.47 897.297 2232.47 897.297ZM2155.8 901.238 2228.59 901.238 2228.59 1019.66 2155.8 1019.66 2155.8 901.238 2155.8 901.238Z" fill="#2C2C2C"/><path d="M2196.92 975.229 2197.04 975.229 2197.04 1021.63 2196.92 1021.63 2196.92 975.229Z" fill="#2C2C2C"/><path d="M2197.04 975.229 2197.04 1021.63 2196.92 1021.63 2196.92 975.229 2197.04 975.229M2198.95 973.318 2197.04 973.318 2196.92 973.318 2195.01 973.318 2195.01 975.229 2195.01 1021.63 2195.01 1023.54 2196.92 1023.54 2197.04 1023.54 2198.95 1023.54 2198.95 1021.63 2198.95 975.229 2198.95 973.318 2198.95 973.318Z" fill="#2C2C2C"/><path d="M2196.92 851.747 2197.04 851.747 2197.04 899.268 2196.92 899.268 2196.92 851.747Z" fill="#2C2C2C"/><path d="M2197.04 851.747 2197.04 899.268 2196.92 899.268 2196.92 851.747 2197.04 851.747M2198.95 849.836 2197.04 849.836 2196.92 849.836 2195.01 849.836 2195.01 851.747 2195.01 899.268 2195.01 901.179 2196.92 901.179 2197.04 901.179 2198.95 901.179 2198.95 899.268 2198.95 851.747 2198.95 849.836 2198.95 849.836Z" fill="#2C2C2C"/><path d="M2196.92 1021.63 2197.04 1021.63 2197.04 1050.73 2196.92 1050.73 2196.92 1021.63Z" fill="#2C2C2C"/><path d="M2197.04 1021.63 2197.04 1050.73 2196.92 1050.73 2196.92 1021.63 2197.04 1021.63M2198.95 1019.72 2197.04 1019.72 2196.92 1019.72 2195.01 1019.72 2195.01 1021.63 2195.01 1050.73 2195.01 1052.64 2196.92 1052.64 2197.04 1052.64 2198.95 1052.64 2198.95 1050.73 2198.95 1021.63 2198.95 1019.72 2198.95 1019.72Z" fill="#2C2C2C"/><path d="M2178.5 1050.67 2215.47 1050.67 2215.47 1050.79 2178.5 1050.79 2178.5 1050.67Z" fill="#2C2C2C"/><path d="M2215.47 1050.67 2215.47 1050.79 2178.5 1050.79 2178.5 1050.67 2215.47 1050.67M2217.38 1048.76 2215.47 1048.76 2178.5 1048.76 2176.59 1048.76 2176.59 1050.67 2176.59 1050.79 2176.59 1052.7 2178.5 1052.7 2215.47 1052.7 2217.38 1052.7 2217.38 1050.79 2217.38 1050.67 2217.38 1048.76 2217.38 1048.76Z" fill="#2C2C2C"/><path d="M2184.43 1056.34 2209.54 1056.34 2209.54 1056.45 2184.43 1056.45 2184.43 1056.34Z" fill="#2C2C2C"/><path d="M2209.54 1056.34 2209.54 1056.45 2184.43 1056.45 2184.43 1056.34 2209.54 1056.34M2211.45 1054.42 2209.54 1054.42 2184.43 1054.42 2182.52 1054.42 2182.52 1056.34 2182.52 1056.45 2182.52 1058.37 2184.43 1058.37 2209.54 1058.37 2211.45 1058.37 2211.45 1056.45 2211.45 1056.34 2211.45 1054.42 2211.45 1054.42Z" fill="#2C2C2C"/><path d="M2190.73 1061.08 2203.23 1061.08 2203.23 1061.2 2190.73 1061.2 2190.73 1061.08Z" fill="#2C2C2C"/><path d="M2203.23 1061.08 2203.23 1061.2 2190.73 1061.2 2190.73 1061.08 2203.23 1061.08M2205.15 1059.17 2203.23 1059.17 2190.73 1059.17 2188.82 1059.17 2188.82 1061.08 2188.82 1061.2 2188.82 1063.11 2190.73 1063.11 2203.23 1063.11 2205.15 1063.11 2205.15 1061.2 2205.15 1061.08 2205.15 1059.17 2205.15 1059.17Z" fill="#2C2C2C"/></g></g></g><path d="M2189.78 841.791 2189.5 790.5" stroke="#000000" stroke-width="4.58333" stroke-miterlimit="8" fill="none" fill-rule="evenodd"/><g clip-path="url(#clip22)"><g clip-path="url(#clip23)"><g clip-path="url(#clip24)"><path d="M1794.15 1242.72C1787.44 1242.72 1782 1237.29 1782 1230.57L1782 1082.75C1782 1076.04 1787.44 1070.6 1794.15 1070.6L2039.85 1070.6C2046.56 1070.6 2052 1076.04 2052 1082.75L2052 1230.57C2052 1237.28 2046.56 1242.72 2039.85 1242.72L1794.15 1242.72ZM1814.4 1224.5 1830.6 1224.5C1833.58 1224.5 1836 1222.08 1836 1219.1L1836 1094.9C1836 1091.92 1833.58 1089.5 1830.6 1089.5 1830.6 1089.5 1830.6 1089.5 1830.6 1089.5L1814.4 1089.5C1811.42 1089.5 1809 1091.92 1809 1094.9L1809 1219.1C1809 1222.08 1811.42 1224.5 1814.4 1224.5 1814.4 1224.5 1814.4 1224.5 1814.4 1224.5ZM1861.65 1224.5 1877.85 1224.5C1880.83 1224.5 1883.25 1222.08 1883.25 1219.1L1883.25 1094.9C1883.25 1091.92 1880.83 1089.5 1877.85 1089.5 1877.85 1089.5 1877.85 1089.5 1877.85 1089.5L1861.65 1089.5C1858.67 1089.5 1856.25 1091.92 1856.25 1094.9L1856.25 1219.1C1856.25 1222.08 1858.67 1224.5 1861.65 1224.5 1861.65 1224.5 1861.65 1224.5 1861.65 1224.5ZM1908.9 1224.5 1925.1 1224.5C1928.08 1224.5 1930.5 1222.08 1930.5 1219.1L1930.5 1094.9C1930.5 1091.92 1928.08 1089.5 1925.1 1089.5 1925.1 1089.5 1925.1 1089.5 1925.1 1089.5L1908.9 1089.5C1905.92 1089.5 1903.5 1091.92 1903.5 1094.9L1903.5 1219.1C1903.5 1222.08 1905.92 1224.5 1908.9 1224.5 1908.9 1224.5 1908.9 1224.5 1908.9 1224.5ZM1828.58 1205.6C1828.58 1208.96 1825.86 1211.67 1822.5 1211.67 1819.15 1211.67 1816.43 1208.96 1816.43 1205.6 1816.43 1202.24 1819.15 1199.52 1822.5 1199.52 1825.86 1199.52 1828.58 1202.24 1828.58 1205.6ZM1828.58 1181.3C1828.58 1184.66 1825.86 1187.37 1822.5 1187.37 1819.15 1187.37 1816.43 1184.66 1816.43 1181.3 1816.43 1177.94 1819.15 1175.22 1822.5 1175.22 1825.86 1175.22 1828.58 1177.94 1828.58 1181.3ZM1828.58 1157C1828.58 1160.35 1825.86 1163.07 1822.5 1163.07 1819.15 1163.07 1816.43 1160.35 1816.43 1157 1816.43 1153.64 1819.15 1150.92 1822.5 1150.92 1825.86 1150.92 1828.58 1153.64 1828.58 1157ZM1875.83 1205.6C1875.83 1208.96 1873.11 1211.67 1869.75 1211.67 1866.39 1211.67 1863.68 1208.96 1863.68 1205.6 1863.68 1202.24 1866.39 1199.52 1869.75 1199.52 1873.11 1199.52 1875.83 1202.24 1875.83 1205.6ZM1875.83 1181.3C1875.83 1184.66 1873.11 1187.37 1869.75 1187.37 1866.39 1187.37 1863.68 1184.66 1863.68 1181.3 1863.68 1177.94 1866.39 1175.22 1869.75 1175.22 1873.11 1175.22 1875.83 1177.94 1875.83 1181.3ZM1875.83 1157C1875.83 1160.35 1873.11 1163.07 1869.75 1163.07 1866.39 1163.07 1863.68 1160.35 1863.68 1157 1863.68 1153.64 1866.39 1150.92 1869.75 1150.92 1873.11 1150.92 1875.83 1153.64 1875.83 1157ZM1923.08 1205.6C1923.08 1208.96 1920.36 1211.67 1917 1211.67 1913.64 1211.67 1910.93 1208.96 1910.93 1205.6 1910.93 1202.24 1913.64 1199.52 1917 1199.52 1920.36 1199.52 1923.08 1202.24 1923.08 1205.6ZM1923.08 1181.3C1923.08 1184.66 1920.36 1187.37 1917 1187.37 1913.64 1187.37 1910.93 1184.66 1910.93 1181.3 1910.93 1177.94 1913.64 1175.22 1917 1175.22 1920.36 1175.22 1923.08 1177.94 1923.08 1181.3ZM1923.08 1157C1923.08 1160.35 1920.36 1163.07 1917 1163.07 1913.64 1163.07 1910.93 1160.35 1910.93 1157 1910.93 1153.64 1913.64 1150.92 1917 1150.92 1920.36 1150.92 1923.08 1153.64 1923.08 1157Z" fill="#2C2C2C"/></g></g></g><g clip-path="url(#clip25)"><g clip-path="url(#clip26)"><g clip-path="url(#clip27)"><path d="M80.7466 21.3404C88.0342 21.3404 95.0871 22.7273 101.901 25.4672 108.897 28.2919 115.084 32.4013 120.468 37.7616 120.495 37.7946 125.982 43.1376 136.927 53.8392L136.927 32.5554C136.927 31.0145 137.479 29.6796 138.573 28.5836 139.675 27.4877 140.998 26.9397 142.549 26.9397 144.099 26.9397 145.419 27.4877 146.522 28.5836 147.619 29.6796 148.168 31.0145 148.168 32.5554L148.168 66.1675C148.168 67.7249 147.619 69.0433 146.522 70.1393 145.419 71.2353 144.099 71.7841 142.549 71.7841L108.838 71.7841C107.288 71.7841 105.966 71.2361 104.864 70.1401 103.768 69.0442 103.219 67.7257 103.219 66.1675 103.219 64.6266 103.769 63.3081 104.864 62.2122 105.966 61.1162 107.288 60.5682 108.838 60.5682L127.799 60.5682C119.665 52.6749 114.574 47.7266 112.526 45.6715 108.164 41.3396 103.209 38.0525 97.6465 35.826 92.2936 33.6341 86.659 32.5554 80.7515 32.5554 74.8424 32.5554 69.2077 33.6349 63.8548 35.8268 58.2655 38.0517 53.3056 41.3396 48.9737 45.6715 44.6459 50.0034 41.3564 54.9525 39.1002 60.5171 36.9009 65.8593 35.8074 71.4759 35.8074 77.3825 35.8074 83.2726 36.9009 88.8892 39.1002 94.2314 41.3564 99.796 44.6459 104.745 48.9737 109.06 53.3056 113.409 58.2655 116.696 63.8557 118.905 69.2077 121.114 74.8424 122.193 80.7515 122.193 86.6598 122.193 92.2936 121.114 97.6465 118.905 103.209 116.697 108.164 113.409 112.526 109.06 117.383 104.214 120.924 98.6317 123.149 92.2965 123.644 90.8413 124.599 89.78 126 89.129 127.405 88.478 128.838 88.3923 130.302 88.8719 131.769 89.4026 132.837 90.379 133.503 91.7659 134.18 93.17 134.252 94.6088 133.726 96.064 132.379 99.8817 130.559 103.632 128.261 107.279 125.962 110.926 123.364 114.162 120.468 116.988 115.084 122.364 108.897 126.473 101.901 129.299 95.0863 132.039 88.0342 133.408 80.7466 133.408 73.4589 133.408 66.406 132.039 59.5921 129.299 52.5962 126.473 46.4077 122.364 41.0252 116.988 35.6443 111.628 31.5274 105.447 28.6895 98.4776 25.9405 91.6802 24.5644 84.6422 24.5644 77.3825 24.5644 70.1063 25.9397 63.0683 28.6895 56.2709 31.5274 49.3013 35.6377 43.1376 41.0252 37.7608 46.4069 32.4013 52.5962 28.2927 59.5921 25.4499 66.4068 22.71 73.4589 21.3404 80.7466 21.3404Z" fill="#2C2C2C" transform="matrix(1 0 0 1.00161 2104.19 371)"/></g></g></g><g clip-path="url(#clip28)"><g clip-path="url(#clip29)"><g clip-path="url(#clip30)"><path d="M235.072 4.53933 235.072 104.38C233.778 107.058 232.016 109.036 228.725 109.036L186.764 109.036C182.886 109.036 180.535 106.709 180.417 102.867 180.3 97.6306 180.417 92.3942 180.417 87.0416 180.417 86.1121 180.3 85.1799 180.3 84.2504L173.248 84.2504 173.248 91C173.248 95.188 173.364 99.3761 173.129 103.451 172.894 106.942 170.192 109.268 166.782 109.152 163.491 109.036 161.141 106.593 160.906 103.218 160.789 100.889 160.906 98.4466 160.906 96.1202L160.906 84.2504 149.271 84.2504C149.271 90.5325 149.387 96.8173 149.271 102.983 149.155 107.29 145.51 110.084 141.395 108.919 138.574 108.106 136.928 105.777 136.928 102.286L136.928 84.3666 106.958 84.3666C106.958 90.6487 107.074 96.7011 106.958 102.867 106.958 106.709 104.253 109.268 100.727 109.268 97.201 109.268 94.7341 106.709 94.6152 102.751L94.6152 84.3666 82.9805 84.3666 82.9805 85.9959C82.9805 91.8133 83.0967 97.5144 82.9805 103.334 82.8643 106.709 80.3947 109.152 77.1037 109.268 73.8127 109.384 71.2269 107.174 70.7567 103.799 70.6378 102.751 70.6378 101.589 70.6378 100.541L70.6378 84.3666 53.9477 84.3666 53.9477 103.102C53.9477 108.687 51.7159 110.781 46.1903 110.781L7.87357 110.781C2.11565 110.781 0 108.687 0 102.867L0 7.9141C0 4.18807 1.17536 1.51311 4.70144 0L230.606 0C231.897 1.51311 233.543 3.02622 235.072 4.53933ZM192.759 96.7011 222.494 96.7011 222.494 83.5506C218.028 83.5506 213.916 83.6668 209.684 83.5506 206.393 83.4344 203.808 80.8756 203.808 77.6171 203.689 74.4747 206.158 71.7997 209.449 71.4484 210.506 71.3323 211.446 71.4484 212.505 71.3323L222.613 71.3323 222.613 12.3345 12.4588 12.3345 12.4588 71.3323 26.2092 71.3323C31.6159 71.3323 34.4367 73.5425 34.4367 77.6171 34.3205 81.5728 31.4997 83.5506 26.2092 83.5506L12.4588 83.5506 12.4588 98.3304 41.6078 98.3304 41.6078 79.9435C41.6078 73.8937 43.6045 71.9159 49.8353 71.9159L184.648 71.9159C190.76 71.9159 192.875 74.0099 192.875 80.0596 192.759 85.5285 192.759 91 192.759 96.7011ZM119.887 38.6329 205.569 38.6329C210.86 38.6329 213.681 40.7296 213.681 44.6853 213.681 48.641 210.741 50.8512 205.453 50.8512L33.9666 50.8512C28.7977 50.8512 26.093 48.5248 26.093 44.453 26.186 41.4338 28.4955 38.9477 31.4997 38.6329 32.5561 38.5167 33.4964 38.5167 34.5556 38.5167 62.9994 38.6329 91.4431 38.6329 119.887 38.6329Z" fill="#2C2C2C" transform="matrix(-1 1.22465e-16 -1.22631e-16 -1.00136 3454 960.971)"/></g></g></g><text font-family="Times New Roman,Times New Roman_MSFontService,sans-serif" font-weight="400" font-size="46" transform="matrix(1 0 0 1 3136.08 666)">Motor<tspan font-size="46" x="42.812" y="-267">Shaker Piezo</tspan><tspan font-size="46" x="442.567" y="341">Piezo Driver</tspan><tspan font-size="46" x="81.3491" y="335">Motor Driver</tspan><tspan font-size="46" x="-412.615" y="-202">Cavity</tspan><tspan font-size="46" x="-1581.85" y="149">Signal Generator</tspan><tspan font-size="46" x="-1552.46" y="488">PC</tspan><tspan font-size="46" x="-1020.72" y="-298">Circulator</tspan><tspan font-size="46" x="-1415.55" y="-296">Directional coupler</tspan><tspan font-size="46" x="-891.045" y="353">load</tspan><tspan font-size="46" x="0" y="-355">Piezo</tspan></text><path d="M0 0 90.0607 122.554" stroke="#000000" stroke-width="2.29167" stroke-miterlimit="8" fill="none" fill-rule="evenodd" transform="matrix(1 0 0 -1 3054 440.554)"/><text font-family="Times New Roman,Times New Roman_MSFontService,sans-serif" font-weight="400" font-size="46" transform="matrix(1 0 0 1 2260.45 737)">Directional coupler<tspan font-size="46" x="584.749" y="270">Piezo Driver</tspan><tspan font-size="46" x="-197.219" y="505">LLRF</tspan></text><path d="M0 0-719.587 0-719.587 925.104 1227 925.104 1227 842.604" stroke="#000000" stroke-width="4.58333" stroke-miterlimit="8" fill="none" fill-rule="evenodd" transform="matrix(-1 0 0 1 3144.5 449.5)"/></g></svg>